<?xml version="1.0" encoding="UTF-8" standalone="no"?>
<svg
   width="149.25"
   height="28"
   role="img"
   aria-label="开源字体一览: 图文版"
   version="1.1"
   id="svg146"
   sodipodi:docname="fontlist2.svg"
   inkscape:version="1.2.2 (732a01da63, 2022-12-09)"
   xmlns:inkscape="http://www.inkscape.org/namespaces/inkscape"
   xmlns:sodipodi="http://sodipodi.sourceforge.net/DTD/sodipodi-0.dtd"
   xmlns="http://www.w3.org/2000/svg"
   xmlns:svg="http://www.w3.org/2000/svg"
   xmlns:rdf="http://www.w3.org/1999/02/22-rdf-syntax-ns#"
   xmlns:cc="http://creativecommons.org/ns#"
   xmlns:dc="http://purl.org/dc/elements/1.1/">
  <defs
     id="defs150" />
  <sodipodi:namedview
     id="namedview148"
     pagecolor="#ffffff"
     bordercolor="#000000"
     borderopacity="0.25"
     inkscape:showpageshadow="2"
     inkscape:pageopacity="0.0"
     inkscape:pagecheckerboard="0"
     inkscape:deskcolor="#d1d1d1"
     showgrid="false"
     inkscape:zoom="3.0686767"
     inkscape:cx="63.382369"
     inkscape:cy="-15.478985"
     inkscape:window-width="1920"
     inkscape:window-height="991"
     inkscape:window-x="-9"
     inkscape:window-y="-9"
     inkscape:window-maximized="1"
     inkscape:current-layer="g144" />
  <title
     id="title132">开源字体一览: 表格版</title>
  <g
     shape-rendering="crispEdges"
     id="g138">
    <rect
       width="91.5"
       height="28"
       fill="#555"
       id="rect134"
       style="fill:#ed2f6a;fill-opacity:1" />
    <rect
       x="91.5"
       width="57.75"
       height="28"
       fill="#2694e8"
       id="rect136"
       style="fill:#de7897;fill-opacity:1" />
  </g>
  <g
     fill="#fff"
     text-anchor="middle"
     font-family="Verdana,Geneva,DejaVu Sans,sans-serif"
     text-rendering="geometricPrecision"
     font-size="100"
     id="g144">
    <g
       aria-label="开源字体一览"
       id="text424"
       style="font-weight:bold;font-size:13.3333px;line-height:0;font-family:'LXGW WenKai GB';-inkscape-font-specification:'LXGW WenKai GB Bold';text-anchor:start">
      <path
         d="M 14.225075,12.46635 V 8.9963063 H 11.158676 V 12.46635 Z m -6.1002454,6.575504 -0.6966128,-0.8138 Q 9.0948793,17.446806 9.7459193,15.929883 10.182116,14.92077 10.201647,13.345254 H 6.8683224 V 12.46635 H 10.201647 V 8.9963063 H 7.7211848 V 8.1043815 H 17.519337 V 8.9963063 H 15.201635 V 12.46635 h 3.131502 v 0.878904 h -3.079419 v 5.507798 h -0.97656 v -5.507798 h -3.118482 q 0,3.958323 -3.0338464,5.6966 z"
         style="font-weight:normal;font-family:'LXGW Neo XiHei';-inkscape-font-specification:'LXGW Neo XiHei'"
         id="path316" />
      <path
         d="m 31.047949,18.423366 q -0.859373,-1.699215 -1.874995,-2.76041 l 0.8138,-0.481769 q 1.113278,1.171872 1.933588,2.578118 z m -6.555973,0.253905 -0.696613,-0.709633 q 1.087237,-1.041664 1.692704,-2.610671 l 0.872394,0.358072 q -0.677082,1.731767 -1.868485,2.962232 z m -3.802074,0.358072 -0.800779,-0.677081 q 1.080726,-1.888016 1.751297,-4.251292 l 0.755207,0.572916 q -0.729165,2.61067 -1.705725,4.355457 z M 22.063596,9.9989079 Q 21.204224,8.9572439 20.221153,8.1955271 l 0.631509,-0.6901025 q 1.061195,0.7682273 1.861975,1.7447873 z M 21.653441,13.13041 Q 20.8136,12.114788 19.810998,11.346561 l 0.598957,-0.709634 q 0.957029,0.677082 1.894526,1.731767 z m 8.29425,0.761717 v -1.236976 h -4.042958 v 1.236976 z m 0,-1.972651 v -1.184893 h -4.042958 v 1.184893 z m -1.764318,6.966128 q -0.208333,0.175781 -0.80078,0.175781 -0.585936,0 -1.354163,-0.104166 l -0.136718,-0.944008 q 0.8138,0.143228 1.243486,0.143228 0.384114,0 0.384114,-0.423176 V 14.653844 H 25.012808 V 9.9858871 h 1.933589 q 0.208332,-0.65104 0.345051,-1.4127568 h -3.151034 v 3.5872307 q 0,2.207025 -0.312499,3.821605 -0.305989,1.608069 -1.256507,3.053377 l -0.709634,-0.742185 q 1.360674,-2.083328 1.360674,-5.475247 V 7.7593303 h 8.417947 v 0.8138 h -3.404939 q -0.208333,0.8528624 -0.410155,1.4127568 h 3.014315 v 4.6679569 h -2.402338 v 3.489575 q 0,0.553384 -0.253905,0.742185 z"
         style="font-weight:normal;font-family:'LXGW Neo XiHei';-inkscape-font-specification:'LXGW Neo XiHei'"
         id="path318" />
      <path
         d="m 39.817458,18.130398 q 0,0.566405 -0.266927,0.761717 -0.266926,0.195312 -0.98307,0.195312 -0.716144,0 -1.738277,-0.104167 l -0.16276,-0.98307 q 1.152341,0.156249 1.770829,0.156249 0.377603,0 0.377603,-0.33203 V 15.090041 H 33.34612 v -0.865883 h 5.410143 V 13.11739 q 1.289059,-0.507812 2.324213,-1.217445 h -5.598945 v -0.878904 h 7.083316 l 0.449217,0.481769 q -1.692704,1.321612 -3.268221,2.050776 v 0.670572 h 5.325508 v 0.865883 H 39.817458 Z M 44.57005,11.587446 H 43.567448 V 9.7319815 H 34.80445 V 11.587446 H 33.814869 V 8.8921399 H 39.19897 Q 38.71069,8.1108919 38.027098,7.4012582 l 0.781248,-0.4622384 q 0.787758,0.7552065 1.419267,1.6927041 l -0.442707,0.260416 h 4.785144 z"
         style="font-weight:normal;font-family:'LXGW Neo XiHei';-inkscape-font-specification:'LXGW Neo XiHei'"
         id="path320" />
      <path
         d="m 49.140353,19.048364 h -0.944008 v -6.705712 q -0.48177,0.865883 -1.184893,1.803381 l -0.520832,-0.8138 Q 48.404678,10.6825 49.179415,7.2124566 l 0.937498,0.2408848 q -0.410155,1.6015585 -0.97656,2.9687426 z m 5.227851,0.01953 h -0.97656 v -2.669264 h -1.731766 v -0.82682 h 1.764318 v -3.89322 q -0.859373,2.903639 -3.26171,5.292956 L 49.4203,16.196809 q 2.369786,-1.972651 3.613272,-5.318997 h -3.066398 v -0.865883 h 3.42447 V 7.2775606 h 0.97656 v 2.7343684 h 3.73046 v 0.865883 h -3.372388 q 1.282549,2.942701 3.723949,4.8828 l -0.735675,0.904946 q -2.389317,-2.369786 -3.372387,-5.03905 v 3.945303 h 1.783849 v 0.82682 h -1.757808 z"
         style="font-weight:normal;font-family:'LXGW Neo XiHei';-inkscape-font-specification:'LXGW Neo XiHei'"
         id="path322" />
      <path
         d="M 71.451492,13.28015 H 60.266625 v -1.080727 h 11.184867 z"
         style="font-weight:normal;font-family:'LXGW Neo XiHei';-inkscape-font-specification:'LXGW Neo XiHei'"
         id="path324" />
      <path
         d="M 73.730131,19.119979 73.202788,18.16295 q 1.868485,-0.143229 3.08593,-0.696613 1.217445,-0.559894 1.803381,-1.393226 0.592446,-0.839841 0.592446,-1.79036 v -0.449217 h 0.97656 v 0.48828 q 0,0.768227 -0.351561,1.536454 -0.351562,0.768227 -1.074216,1.438799 -0.722655,0.66406 -1.848954,1.13932 -1.119789,0.481769 -2.656243,0.683592 z m 9.583309,-7.226545 q -1.184893,-0.852862 -2.59765,-1.497392 l 0.546874,-0.6770813 q 1.276038,0.5078113 2.682285,1.2695283 z m 1.367184,6.66665 q -0.384114,0.240885 -2.369786,0.240885 -1.985672,0 -2.363275,-0.16276 -0.455728,-0.175781 -0.455728,-0.781248 v -2.233067 h 0.904945 v 1.868485 q 0,0.358072 0.292968,0.423176 0.292969,0.05859 1.803381,0.05859 1.516924,0 1.653642,-0.292968 0.136718,-0.260416 0.15625,-1.132809 l 0.924476,0.319009 q -0.01953,1.360674 -0.546873,1.692704 z M 83.144169,16.20983 h -0.944008 v -3.059888 h -6.009099 v 3.059888 h -0.944008 v -3.880199 h 7.897115 z M 75.279606,11.548383 H 74.37466 V 7.7007367 h 0.904946 z m 2.402338,0.266927 H 76.776998 V 7.0757382 h 0.904946 z m 1.419267,-0.390624 -0.611978,-0.65104 q 1.315101,-1.4713509 1.816402,-3.9062406 l 0.839842,0.2669264 q -0.15625,0.6315089 -0.345052,1.1979137 h 3.938792 v 0.8203104 h -4.244781 q -0.579425,1.3932261 -1.393225,2.2721301 z"
         style="font-weight:normal;font-family:'LXGW Neo XiHei';-inkscape-font-specification:'LXGW Neo XiHei'"
         id="path326" />
    </g>
    <g
       aria-label="图文版"
       id="text424-8"
       style="font-weight:bold;font-size:13.3333px;line-height:0;font-family:'LXGW WenKai GB';-inkscape-font-specification:'LXGW WenKai GB Bold';text-anchor:start">
      <path
         d="m 105.54837,10.237033 -0.27344,0.377603 q 0.72916,0.787758 1.49739,1.328121 1.02213,-0.957028 1.47135,-1.705724 z m 2.70181,-0.3320308 0.45573,-0.5143216 q 0.80078,0.6510404 0.80078,0.8268204 0,0.104167 -0.17578,0.175781 l -0.33203,0.136719 q -0.65755,0.878904 -1.62109,1.80338 1.45833,0.839842 3.59374,1.256508 -0.33854,0.319009 -0.54687,0.781248 -2.20052,-0.64453 -3.53515,-1.601559 -1.73177,1.347653 -4.21223,1.914058 l -0.16927,-0.292968 q 2.01171,-0.657551 3.84114,-2.070307 -0.70964,-0.631509 -1.32162,-1.412757 -0.82031,0.963539 -2.03124,1.738277 l -0.23437,-0.234375 q 1.75129,-1.412757 2.7604,-3.6458239 1.10677,0.32552 1.10677,0.5468736 0,0.1562497 -0.55989,0.1953121 -0.16276,0.2539056 -0.29297,0.3971344 z m -2.72786,4.0364478 q 2.98177,0.462239 2.98177,1.315101 0,0.371093 -0.35807,0.371093 -0.13672,0 -0.48828,-0.286458 -0.88542,-0.729164 -2.3112,-1.132809 z m -1.32812,1.529944 q 2.48047,0.31901 3.9388,0.898436 1.10676,0.416665 1.10676,0.891924 0,0.377604 -0.38411,0.377604 -0.14974,0 -0.54687,-0.279948 -1.4388,-0.970049 -4.21223,-1.575516 z m -1.97265,-7.4218559 h 8.8281 l 0.50782,-0.585936 q 0.79426,0.6380192 0.79426,0.8268208 0,0.091146 -0.11718,0.1692704 l -0.29297,0.2018224 V 19.247426 h -0.77474 v -0.865883 h -9.06248 v 0.865883 h -0.77473 V 7.6524037 q 0.38411,0.130208 0.89192,0.3971344 z m -0.11719,0.3320304 v 9.6679445 h 9.06248 V 8.3815685 Z"
         style="font-weight:normal;font-family:'LXGW Neo ZhiSong CHS';-inkscape-font-specification:'LXGW Neo ZhiSong CHS'"
         id="path329" />
      <path
         d="m 116.9611,10.393282 h -2.36979 l -0.14974,-0.33203 h 9.5768 l 0.76172,-0.9895811 q 0.5664,0.5078113 1.02864,1.0677061 l -0.16276,0.253905 h -2.46744 q -0.8789,3.09244 -2.4414,4.986967 1.97916,1.79687 5.18879,2.799472 -0.41667,0.377603 -0.65104,0.8138 -3.15103,-1.243487 -4.97395,-3.053378 -2.3828,2.382807 -5.93748,3.281242 l -0.18229,-0.305989 q 3.1966,-1.028643 5.5729,-3.561189 -1.67317,-1.894526 -2.79296,-4.960925 z m 0.49479,0 q 1.09375,2.636712 2.74739,4.453114 1.41275,-1.888016 2.05728,-4.453114 z m 1.59505,-3.1249919 q 1.9401,1.0807264 1.9401,1.9466096 0,0.6705713 -0.47526,0.6705713 -0.45573,0 -0.54037,-0.5664048 -0.14323,-0.8528625 -1.15885,-1.7512977 z"
         style="font-weight:normal;font-family:'LXGW Neo ZhiSong CHS';-inkscape-font-specification:'LXGW Neo ZhiSong CHS'"
         id="path331" />
      <path
         d="m 133.98579,9.2995349 v 2.4739521 h 3.53515 l 0.5013,-0.624998 q 0.83333,0.703123 0.83333,0.904945 0,0.08464 -0.11067,0.143229 l -0.3711,0.201822 q -0.57291,2.252599 -1.53645,3.776033 1.02213,1.217444 2.70833,2.1289 -0.4362,0.332031 -0.67057,0.774738 -1.47787,-1.002602 -2.43489,-2.252598 -1.14583,1.562496 -3.21614,2.428379 l -0.1888,-0.292968 q 1.73827,-0.937498 2.94921,-2.773431 -1.04818,-1.63411 -1.54297,-4.082021 h -0.45573 v 0.48177 q 0,4.453114 -2.01822,6.66665 l -0.27995,-0.201823 q 1.52344,-2.298171 1.52344,-6.490869 V 8.6094325 q 0.1888,0.071614 0.74869,0.3385408 l 0.026,0.013021 q 2.42838,-0.4492176 3.90624,-1.3867152 0.97656,0.5924464 0.97656,0.8268208 0,0.1171872 -0.2539,0.1171872 -0.20182,0 -0.42969,-0.052083 -2.07681,0.6575504 -4.19921,0.8333312 z m 0.85287,2.8059821 q 0.49479,1.998693 1.51692,3.463533 0.80078,-1.393225 1.24349,-3.463533 z m -5.77473,-0.520832 v 0.520832 q 0,0.898436 -0.0391,1.718746 l -0.013,0.117187 h 1.45182 l 0.52083,-0.638019 q 0.77474,0.611978 0.77474,0.8138 0,0.09115 -0.11068,0.15625 l -0.31901,0.214843 v 4.576811 h -0.74869 v -4.791654 h -1.60156 q -0.19532,3.111971 -1.46484,4.967435 l -0.29297,-0.188802 q 1.0677,-2.395827 1.0677,-6.959617 V 7.7891221 q 1.28255,0.058594 1.28255,0.3190096 0,0.16276 -0.50781,0.3841136 v 2.7604097 h 1.38672 V 7.4636021 q 1.26302,0.026042 1.26302,0.32552 0,0.1497392 -0.51433,0.3710928 v 3.0924401 h 0.41016 l 0.54687,-0.852862 q 0.0586,0.09114 0.22787,0.292968 0.15625,0.195312 0.43619,0.624998 l -0.14323,0.266926 z"
         style="font-weight:normal;font-family:'LXGW Neo ZhiSong CHS';-inkscape-font-specification:'LXGW Neo ZhiSong CHS'"
         id="path333" />
    </g>
  </g>
  <metadata
     id="metadata4584">
    <rdf:RDF>
      <cc:Work
         rdf:about="">
        <dc:title>开源字体一览: 表格版</dc:title>
      </cc:Work>
    </rdf:RDF>
  </metadata>
</svg>
