<?xml version="1.0" encoding="UTF-8" standalone="no"?>
<svg
   width="149.25"
   height="28"
   role="img"
   aria-label="开源字体一览: 表格版"
   version="1.1"
   id="svg146"
   sodipodi:docname="fontlist1.svg"
   inkscape:version="1.2.2 (732a01da63, 2022-12-09)"
   xmlns:inkscape="http://www.inkscape.org/namespaces/inkscape"
   xmlns:sodipodi="http://sodipodi.sourceforge.net/DTD/sodipodi-0.dtd"
   xmlns="http://www.w3.org/2000/svg"
   xmlns:svg="http://www.w3.org/2000/svg"
   xmlns:rdf="http://www.w3.org/1999/02/22-rdf-syntax-ns#"
   xmlns:cc="http://creativecommons.org/ns#"
   xmlns:dc="http://purl.org/dc/elements/1.1/">
  <defs
     id="defs150" />
  <sodipodi:namedview
     id="namedview148"
     pagecolor="#ffffff"
     bordercolor="#000000"
     borderopacity="0.25"
     inkscape:showpageshadow="2"
     inkscape:pageopacity="0.0"
     inkscape:pagecheckerboard="0"
     inkscape:deskcolor="#d1d1d1"
     showgrid="false"
     inkscape:zoom="1.5343384"
     inkscape:cx="-19.878275"
     inkscape:cy="-36.171943"
     inkscape:window-width="1920"
     inkscape:window-height="991"
     inkscape:window-x="-9"
     inkscape:window-y="-9"
     inkscape:window-maximized="1"
     inkscape:current-layer="text424-8" />
  <title
     id="title132">开源字体一览: 表格版</title>
  <g
     shape-rendering="crispEdges"
     id="g138">
    <rect
       width="91.5"
       height="28"
       fill="#555"
       id="rect134"
       style="fill:#2177b8;fill-opacity:1" />
    <rect
       x="91.5"
       width="57.75"
       height="28"
       fill="#2694e8"
       id="rect136"
       style="fill:#5698c3;fill-opacity:1" />
  </g>
  <g
     fill="#fff"
     text-anchor="middle"
     font-family="Verdana,Geneva,DejaVu Sans,sans-serif"
     text-rendering="geometricPrecision"
     font-size="100"
     id="g144">
    <g
       aria-label="开源字体一览"
       id="text424"
       style="font-weight:bold;font-size:13.3333px;line-height:0;font-family:'LXGW WenKai GB';-inkscape-font-specification:'LXGW WenKai GB Bold';text-anchor:start">
      <path
         d="M 14.225075,12.46635 V 8.9963063 H 11.158676 V 12.46635 Z m -6.1002454,6.575504 -0.6966128,-0.8138 Q 9.0948793,17.446806 9.7459193,15.929883 10.182116,14.92077 10.201647,13.345254 H 6.8683224 V 12.46635 H 10.201647 V 8.9963063 H 7.7211848 V 8.1043815 H 17.519337 V 8.9963063 H 15.201635 V 12.46635 h 3.131502 v 0.878904 h -3.079419 v 5.507798 h -0.97656 v -5.507798 h -3.118482 q 0,3.958323 -3.0338464,5.6966 z"
         style="font-weight:normal;font-family:'LXGW Neo XiHei';-inkscape-font-specification:'LXGW Neo XiHei'"
         id="path431" />
      <path
         d="m 31.047949,18.423366 q -0.859373,-1.699215 -1.874995,-2.76041 l 0.8138,-0.481769 q 1.113278,1.171872 1.933588,2.578118 z m -6.555973,0.253905 -0.696613,-0.709633 q 1.087237,-1.041664 1.692704,-2.610671 l 0.872394,0.358072 q -0.677082,1.731767 -1.868485,2.962232 z m -3.802074,0.358072 -0.800779,-0.677081 q 1.080726,-1.888016 1.751297,-4.251292 l 0.755207,0.572916 q -0.729165,2.61067 -1.705725,4.355457 z M 22.063596,9.9989079 Q 21.204224,8.9572439 20.221153,8.1955271 l 0.631509,-0.6901025 q 1.061195,0.7682273 1.861975,1.7447873 z M 21.653441,13.13041 Q 20.8136,12.114788 19.810998,11.346561 l 0.598957,-0.709634 q 0.957029,0.677082 1.894526,1.731767 z m 8.29425,0.761717 v -1.236976 h -4.042958 v 1.236976 z m 0,-1.972651 v -1.184893 h -4.042958 v 1.184893 z m -1.764318,6.966128 q -0.208333,0.175781 -0.80078,0.175781 -0.585936,0 -1.354163,-0.104166 l -0.136718,-0.944008 q 0.8138,0.143228 1.243486,0.143228 0.384114,0 0.384114,-0.423176 V 14.653844 H 25.012808 V 9.9858871 h 1.933589 q 0.208332,-0.65104 0.345051,-1.4127568 h -3.151034 v 3.5872307 q 0,2.207025 -0.312499,3.821605 -0.305989,1.608069 -1.256507,3.053377 l -0.709634,-0.742185 q 1.360674,-2.083328 1.360674,-5.475247 V 7.7593303 h 8.417947 v 0.8138 h -3.404939 q -0.208333,0.8528624 -0.410155,1.4127568 h 3.014315 v 4.6679569 h -2.402338 v 3.489575 q 0,0.553384 -0.253905,0.742185 z"
         style="font-weight:normal;font-family:'LXGW Neo XiHei';-inkscape-font-specification:'LXGW Neo XiHei'"
         id="path433" />
      <path
         d="m 39.817458,18.130398 q 0,0.566405 -0.266927,0.761717 -0.266926,0.195312 -0.98307,0.195312 -0.716144,0 -1.738277,-0.104167 l -0.16276,-0.98307 q 1.152341,0.156249 1.770829,0.156249 0.377603,0 0.377603,-0.33203 V 15.090041 H 33.34612 v -0.865883 h 5.410143 V 13.11739 q 1.289059,-0.507812 2.324213,-1.217445 h -5.598945 v -0.878904 h 7.083316 l 0.449217,0.481769 q -1.692704,1.321612 -3.268221,2.050776 v 0.670572 h 5.325508 v 0.865883 H 39.817458 Z M 44.57005,11.587446 H 43.567448 V 9.7319815 H 34.80445 V 11.587446 H 33.814869 V 8.8921399 H 39.19897 Q 38.71069,8.1108919 38.027098,7.4012582 l 0.781248,-0.4622384 q 0.787758,0.7552065 1.419267,1.6927041 l -0.442707,0.260416 h 4.785144 z"
         style="font-weight:normal;font-family:'LXGW Neo XiHei';-inkscape-font-specification:'LXGW Neo XiHei'"
         id="path435" />
      <path
         d="m 49.140353,19.048364 h -0.944008 v -6.705712 q -0.48177,0.865883 -1.184893,1.803381 l -0.520832,-0.8138 Q 48.404678,10.6825 49.179415,7.2124566 l 0.937498,0.2408848 q -0.410155,1.6015585 -0.97656,2.9687426 z m 5.227851,0.01953 h -0.97656 v -2.669264 h -1.731766 v -0.82682 h 1.764318 v -3.89322 q -0.859373,2.903639 -3.26171,5.292956 L 49.4203,16.196809 q 2.369786,-1.972651 3.613272,-5.318997 h -3.066398 v -0.865883 h 3.42447 V 7.2775606 h 0.97656 v 2.7343684 h 3.73046 v 0.865883 h -3.372388 q 1.282549,2.942701 3.723949,4.8828 l -0.735675,0.904946 q -2.389317,-2.369786 -3.372387,-5.03905 v 3.945303 h 1.783849 v 0.82682 h -1.757808 z"
         style="font-weight:normal;font-family:'LXGW Neo XiHei';-inkscape-font-specification:'LXGW Neo XiHei'"
         id="path437" />
      <path
         d="M 71.451492,13.28015 H 60.266625 v -1.080727 h 11.184867 z"
         style="font-weight:normal;font-family:'LXGW Neo XiHei';-inkscape-font-specification:'LXGW Neo XiHei'"
         id="path439" />
      <path
         d="M 73.730131,19.119979 73.202788,18.16295 q 1.868485,-0.143229 3.08593,-0.696613 1.217445,-0.559894 1.803381,-1.393226 0.592446,-0.839841 0.592446,-1.79036 v -0.449217 h 0.97656 v 0.48828 q 0,0.768227 -0.351561,1.536454 -0.351562,0.768227 -1.074216,1.438799 -0.722655,0.66406 -1.848954,1.13932 -1.119789,0.481769 -2.656243,0.683592 z m 9.583309,-7.226545 q -1.184893,-0.852862 -2.59765,-1.497392 l 0.546874,-0.6770813 q 1.276038,0.5078113 2.682285,1.2695283 z m 1.367184,6.66665 q -0.384114,0.240885 -2.369786,0.240885 -1.985672,0 -2.363275,-0.16276 -0.455728,-0.175781 -0.455728,-0.781248 v -2.233067 h 0.904945 v 1.868485 q 0,0.358072 0.292968,0.423176 0.292969,0.05859 1.803381,0.05859 1.516924,0 1.653642,-0.292968 0.136718,-0.260416 0.15625,-1.132809 l 0.924476,0.319009 q -0.01953,1.360674 -0.546873,1.692704 z M 83.144169,16.20983 h -0.944008 v -3.059888 h -6.009099 v 3.059888 h -0.944008 v -3.880199 h 7.897115 z M 75.279606,11.548383 H 74.37466 V 7.7007367 h 0.904946 z m 2.402338,0.266927 H 76.776998 V 7.0757382 h 0.904946 z m 1.419267,-0.390624 -0.611978,-0.65104 q 1.315101,-1.4713509 1.816402,-3.9062406 l 0.839842,0.2669264 q -0.15625,0.6315089 -0.345052,1.1979137 h 3.938792 v 0.8203104 h -4.244781 q -0.579425,1.3932261 -1.393225,2.2721301 z"
         style="font-weight:normal;font-family:'LXGW Neo XiHei';-inkscape-font-specification:'LXGW Neo XiHei'"
         id="path441" />
    </g>
    <g
       aria-label="表格版"
       id="text424-8"
       style="font-weight:bold;font-size:13.3333px;line-height:0;font-family:'LXGW WenKai GB';-inkscape-font-specification:'LXGW WenKai GB Bold';text-anchor:start">
      <path
         d="m 103.97285,18.049513 v -2.669264 q -1.41276,0.794269 -3.17708,1.289059 l -0.16276,-0.312499 q 3.41145,-1.263018 5.18879,-3.41145 h -4.7591 l -0.14974,-0.33203 h 5.35806 v -1.588538 h -3.76952 l -0.13672,-0.33203 h 3.90624 V 9.2474517 h -4.54426 l -0.14974,-0.3320304 h 4.694 V 7.3008421 q 1.34765,0.019531 1.34765,0.3059888 0,0.1757808 -0.57291,0.3776032 v 0.9309872 h 3.22916 l 0.66406,-0.8268208 q 0.54687,0.4817696 0.90494,0.9179664 l -0.15625,0.2408848 h -4.64191 v 1.4453093 h 2.46744 l 0.63802,-0.8268212 q 0.51432,0.4752592 0.8789,0.9049452 l -0.14323,0.253906 h -3.84113 v 1.588538 h 3.7565 l 0.73567,-0.904946 q 0.58594,0.546874 0.93099,0.97005 l -0.15625,0.266926 h -4.99998 q 0.62499,1.575517 1.58853,2.656243 0.96354,-0.970049 1.79687,-2.272129 1.01563,0.618488 1.01563,0.852862 0,0.16276 -0.3711,0.16276 -0.13672,0 -0.24088,-0.01302 -0.82031,0.781248 -1.96614,1.516924 1.45833,1.419267 3.57421,2.174473 -0.42318,0.384114 -0.69011,0.826821 -3.93879,-1.816402 -5.12368,-5.865871 -0.91146,1.087237 -2.13541,1.907548 v 2.92968 q 2.4414,-0.703123 3.33332,-1.048175 l 0.0911,0.358072 q -1.88802,0.898436 -3.444,1.555986 l -0.30599,0.371093 q -0.15625,0.188801 -0.24089,0.188801 -0.0651,0 -0.27343,-0.286457 -0.15625,-0.208333 -0.38412,-0.572915 z"
         style="font-weight:normal;font-family:'LXGW Neo ZhiSong CHS';-inkscape-font-specification:'LXGW Neo ZhiSong CHS'"
         id="path444" />
      <path
         d="m 120.48974,14.931031 h 3.23566 l 0.46875,-0.520832 q 0.84635,0.598957 0.84635,0.774738 0,0.07813 -0.0976,0.130208 l -0.34505,0.240885 v 3.691396 h -0.76172 v -0.690102 h -3.43749 v 0.690102 h -0.7487 v -4.635404 q 0.14323,0.03906 0.83985,0.319009 z m -0.0911,0.332031 v 2.962232 h 3.43749 v -2.962232 z m 0.0521,-5.065092 q -0.77473,1.223955 -1.95963,2.291661 l -0.2539,-0.253906 q 1.8164,-2.018224 2.67577,-4.9218621 1.13932,0.3385408 1.13932,0.5924464 0,0.16276 -0.54687,0.2213536 -0.18229,0.423176 -0.32552,0.7226544 h 2.35025 l 0.49479,-0.6119776 q 0.85286,0.6901024 0.85286,0.9049456 0,0.1106768 -0.16276,0.1692704 l -0.38411,0.1627601 q -0.70312,1.3867152 -1.7513,2.5325452 1.52344,1.282549 3.63281,2.011714 -0.33203,0.292968 -0.54688,0.761717 -2.16796,-1.015623 -3.45702,-2.27864 -1.71223,1.712235 -4.16014,2.786451 l -0.18881,-0.292968 q 2.28515,-1.223955 3.84114,-3.040357 -0.63802,-0.716144 -1.25,-1.757808 z m 0.22787,-0.3645822 q 0.63151,0.9440082 1.39973,1.7057252 0.9375,-1.119789 1.47786,-2.3567653 h -2.53254 q -0.026,0.052083 -0.34505,0.6510401 z m -4.75911,2.8450452 q -0.74869,2.226557 -1.84244,3.984365 L 113.771,16.487017 q 1.47786,-2.740879 2.12239,-5.917954 h -1.84244 l -0.10417,-0.33203 h 1.97265 V 7.2748005 q 1.26953,0.065104 1.26953,0.3645824 0,0.1562496 -0.52083,0.3190096 v 2.2786405 h 0.75521 l 0.60546,-0.8919252 0.14323,0.1692704 q 0.29948,0.3450512 0.63802,0.8007788 l -0.13021,0.253906 h -2.01171 v 1.223955 q 1.77083,1.217445 1.77083,2.239578 0,0.533853 -0.42969,0.533853 -0.30599,0 -0.42317,-0.48177 -0.26042,-0.996091 -0.91797,-1.835933 v 6.99868 h -0.7487 z"
         style="font-weight:normal;font-family:'LXGW Neo ZhiSong CHS';-inkscape-font-specification:'LXGW Neo ZhiSong CHS'"
         id="path446" />
      <path
         d="m 133.98579,9.2995349 v 2.4739521 h 3.53515 l 0.5013,-0.624998 q 0.83333,0.703123 0.83333,0.904945 0,0.08464 -0.11067,0.143229 l -0.3711,0.201822 q -0.57291,2.252599 -1.53645,3.776033 1.02213,1.217444 2.70833,2.1289 -0.4362,0.332031 -0.67057,0.774738 -1.47787,-1.002602 -2.43489,-2.252598 -1.14583,1.562496 -3.21614,2.428379 l -0.1888,-0.292968 q 1.73827,-0.937498 2.94921,-2.773431 -1.04818,-1.63411 -1.54297,-4.082021 h -0.45573 v 0.48177 q 0,4.453114 -2.01822,6.66665 l -0.27995,-0.201823 q 1.52344,-2.298171 1.52344,-6.490869 V 8.6094325 q 0.1888,0.071614 0.74869,0.3385408 l 0.026,0.013021 q 2.42838,-0.4492176 3.90624,-1.3867152 0.97656,0.5924464 0.97656,0.8268208 0,0.1171872 -0.2539,0.1171872 -0.20182,0 -0.42969,-0.052083 -2.07681,0.6575504 -4.19921,0.8333312 z m 0.85287,2.8059821 q 0.49479,1.998693 1.51692,3.463533 0.80078,-1.393225 1.24349,-3.463533 z m -5.77473,-0.520832 v 0.520832 q 0,0.898436 -0.0391,1.718746 l -0.013,0.117187 h 1.45182 l 0.52083,-0.638019 q 0.77474,0.611978 0.77474,0.8138 0,0.09115 -0.11068,0.15625 l -0.31901,0.214843 v 4.576811 h -0.74869 v -4.791654 h -1.60156 q -0.19532,3.111971 -1.46484,4.967435 l -0.29297,-0.188802 q 1.0677,-2.395827 1.0677,-6.959617 V 7.7891221 q 1.28255,0.058594 1.28255,0.3190096 0,0.16276 -0.50781,0.3841136 v 2.7604097 h 1.38672 V 7.4636021 q 1.26302,0.026042 1.26302,0.32552 0,0.1497392 -0.51433,0.3710928 v 3.0924401 h 0.41016 l 0.54687,-0.852862 q 0.0586,0.09114 0.22787,0.292968 0.15625,0.195312 0.43619,0.624998 l -0.14323,0.266926 z"
         style="font-weight:normal;font-family:'LXGW Neo ZhiSong CHS';-inkscape-font-specification:'LXGW Neo ZhiSong CHS'"
         id="path448" />
    </g>
  </g>
  <metadata
     id="metadata4584">
    <rdf:RDF>
      <cc:Work
         rdf:about="">
        <dc:title>开源字体一览: 表格版</dc:title>
      </cc:Work>
    </rdf:RDF>
  </metadata>
</svg>
