<?xml version="1.0" encoding="UTF-8" standalone="no"?>
<!-- Created with Inkscape (http://www.inkscape.org/) -->

<svg
   width="463.69601"
   height="463.69601"
   viewBox="0 0 463.69601 463.69602"
   version="1.1"
   id="svg5"
   xmlns="http://www.w3.org/2000/svg"
   xmlns:svg="http://www.w3.org/2000/svg">
  <defs
     id="defs2" />
  <g
     id="layer1"
     transform="translate(-393.73106,-350.76097)">
    <g
       aria-label="󿿽"
       id="text284"
       style="font-size:426.191px;line-height:125%;font-family:等线;letter-spacing:0px;word-spacing:0px;display:inline;stroke-width:2.21974"
       transform="translate(37.505,37.505)">
      <path
         style="font-family:'LXGW WenKai GB';-inkscape-font-specification:'LXGW WenKai GB';fill:#2979ff;fill-opacity:1"
         d="m 624.30039,555.75884 -5.54048,-6.81905 q -17.04764,-21.30955 -43.47148,-21.30955 -26.42385,0 -51.56912,23.01431 -2.13095,2.13096 -5.11429,2.13096 -2.98334,0 -5.11429,-2.13096 -2.13096,-2.55714 -2.13096,-5.54048 0,-2.98334 2.13096,-5.11429 28.5548,-27.27623 60.09293,-27.27623 31.53814,0 51.56911,20.45717 11.50716,-9.80239 25.57146,-9.80239 14.06431,0 24.29289,5.11429 16.62145,-16.62145 38.35719,-25.57146 21.73574,-9.3762 44.32387,-9.3762 20.45717,0 39.63576,5.11429 19.60479,4.6881 20.88336,8.09763 1.70476,3.40953 1.70476,5.11429 0,1.27857 -0.85238,2.55715 -1.70476,4.6881 -6.81905,4.6881 l -2.98334,-0.42619 q -21.30955,-9.8024 -51.56911,-10.22859 -18.75241,0 -39.63577,8.52382 -20.45716,8.52382 -35.80004,25.99765 l -4.6881,5.1143 -9.8024,-6.39287 q -7.24524,-2.98334 -14.0643,-2.98334 -15.34288,0 -23.4405,10.65478 z"
         id="path422" />
      <path
         style="font-family:'LXGW WenKai GB';-inkscape-font-specification:'LXGW WenKai GB';fill:#82b1ff;fill-opacity:1"
         d="m 590.6313,739.44717 q -42.6191,0 -77.99295,-15.34288 -34.94767,-14.91668 -61.7977,-41.34053 -26.42384,-26.85003 -41.76672,-61.79769 -15.34287,-35.37386 -15.34287,-75.43581 0,-40.48815 15.34287,-75.43581 15.34288,-35.37385 41.76672,-62.22389 26.85003,-26.85003 61.7977,-41.76672 35.37385,-15.34287 75.862,-15.34287 57.96197,0 106.12156,31.96432 48.15958,31.53814 72.45247,85.6644 l 0.42619,2.98333 q 0,7.67144 -7.24525,7.67144 -4.6881,0 -7.24524,-4.6881 -22.16194,-49.86435 -66.4858,-79.27153 -44.32387,-29.40718 -98.02393,-29.40718 -37.07862,0 -69.89533,14.06431 -32.39052,14.0643 -57.10959,38.78338 -24.29289,24.71908 -38.35719,57.10959 -14.06431,32.39052 -14.06431,69.46914 0,37.07862 14.06431,69.89532 14.0643,32.39052 38.35719,57.1096 24.71907,24.29289 57.10959,38.35719 32.81671,14.0643 71.1739,14.0643 38.78338,0 74.15724,-17.04764 35.37385,-16.62145 60.51912,-46.02863 25.57146,-29.40718 36.65243,-67.76437 H 588.50035 q -7.67144,0 -7.67144,-7.24524 0,-7.67144 7.67144,-7.67144 H 770.9101 q 7.24525,0 7.24525,8.95001 -10.65478,44.32386 -38.35719,78.84534 -27.27623,34.09528 -66.91199,53.27387 -39.63577,19.60479 -82.25487,19.60479 z"
         id="path420" />
      <path
         style="font-family:'LXGW WenKai GB';-inkscape-font-specification:'LXGW WenKai GB';fill:#448aff;fill-opacity:1"
         d="m 499.00023,674.23994 h -10.65477 l 9.3762,-79.27152 h 10.65478 z"
         id="path418" />
      <path
         id="path416"
         style="font-family:'LXGW WenKai GB';-inkscape-font-specification:'LXGW WenKai GB';fill:#2962ff;fill-opacity:1"
         d="m 583.38581,620.96516 c -6.81904,0 -12.50084,2.55759 -17.04687,7.67188 -4.54603,5.11428 -7.38693,11.64991 -8.52344,19.60547 -0.85238,7.95555 0.56807,14.49118 4.26172,19.60546 3.97778,4.83017 9.23266,7.24414 15.76758,7.24414 6.53492,0 11.50844,-3.2678 14.91797,-9.80273 l -0.42578,3.41016 c -0.85239,6.53492 -2.84141,11.36483 -5.9668,14.49023 -3.1254,3.1254 -6.53487,4.6875 -10.22852,4.6875 -7.10318,0 -12.64527,-2.13067 -16.62304,-6.39258 l -5.9668,7.67188 c 6.2508,5.39841 13.21334,8.09765 20.88476,8.09765 16.19525,0 25.71342,-9.80148 28.55469,-29.40625 l 5.53906,-46.02929 h -9.80078 l -0.85351,8.94922 c -0.56826,-2.27302 -2.13036,-4.4037 -4.6875,-6.39258 -2.55715,-2.27302 -5.82495,-3.41016 -9.80274,-3.41016 z m 0.42578,8.95117 c 3.40953,0 6.25238,1.56211 8.5254,4.6875 2.27301,2.84127 3.26654,6.536 2.98242,11.08204 l -0.85157,5.53906 c -0.56825,4.2619 -2.41561,7.67137 -5.54101,10.22851 -2.84127,2.55715 -5.68217,3.83594 -8.52344,3.83594 -4.26191,0 -7.38807,-1.5621 -9.37695,-4.6875 -1.70477,-3.40952 -2.27333,-7.67087 -1.70508,-12.78516 0.85238,-5.68254 2.55809,-10.08749 5.11523,-13.21289 2.55715,-3.12539 5.68135,-4.6875 9.375,-4.6875 z" />
      <path
         style="font-family:'LXGW WenKai GB';-inkscape-font-specification:'LXGW WenKai GB';fill:#2979ff;fill-opacity:1"
         d="M 663.50996,674.23994 H 652.429 l -2.13096,-17.47383 q -1.27857,-12.35954 -1.70476,-19.60478 -2.13096,7.24524 -6.81906,19.60478 l -6.39286,17.47383 h -11.08097 l -8.95001,-52.42149 h 10.65478 l 2.98333,20.03098 q 1.27858,13.21192 1.70477,18.32621 2.55714,-5.11429 7.24524,-18.32621 l 7.24525,-19.60479 h 9.80239 l 2.55715,19.60479 q 1.70476,13.63811 2.13096,18.32621 1.70476,-5.11429 7.24524,-18.7524 l 7.24525,-19.60479 h 11.08097 z"
         id="path412" />
      <path
         style="font-family:'LXGW WenKai GB';-inkscape-font-specification:'LXGW WenKai GB';fill:#448aff;fill-opacity:1"
         d="m 685.6719,660.60183 q 2.55714,0 4.26191,2.13096 2.13095,2.13095 2.13095,5.11429 -0.42619,2.98334 -2.98333,5.11429 -2.55715,2.13096 -5.54049,2.13096 -2.98334,0 -4.6881,-2.13096 -1.70476,-2.13095 -1.70476,-5.11429 0.85238,-2.98334 2.98333,-5.11429 2.55715,-2.13096 5.54049,-2.13096 z"
         id="path410" />
      <path
         style="font-family:'LXGW WenKai GB';-inkscape-font-specification:'LXGW WenKai GB';fill:#2979ff;fill-opacity:1"
         d="m 526.70265,647.8161 -13.63811,-25.99765 h 11.93335 l 8.95001,18.32621 13.21192,-18.32621 h 11.93335 l -20.03098,25.99765 13.21192,25.99765 h -11.50716 l -8.52382,-18.32621 -14.0643,18.32621 h -11.93335 z"
         id="path405" />
    </g>
  </g>
</svg>
